<?xml version="1.0" encoding="utf-8"?>
<!-- Generator: Adobe Illustrator 17.1.0, SVG Export Plug-In . SVG Version: 6.00 Build 0)  -->
<!DOCTYPE svg PUBLIC "-//W3C//DTD SVG 1.1//EN" "http://www.w3.org/Graphics/SVG/1.1/DTD/svg11.dtd">
<svg version="1.1" id="Слой_1" xmlns="http://www.w3.org/2000/svg" xmlns:xlink="http://www.w3.org/1999/xlink" x="0px" y="0px"
	 viewBox="0 0 50 50" style="enable-background:new 0 0 50 50;" xml:space="preserve">
<style type="text/css">
	.st0{fill:url(#SVGID_1_);}
</style>
<g>
	<radialGradient id="SVGID_1_" cx="25" cy="25" r="174.019" gradientUnits="userSpaceOnUse">
		<stop  offset="0" style="stop-color:#FFFFFF"/>
		<stop  offset="1" style="stop-color:#000000"/>
	</radialGradient>
	<path class="st0" d="M25,0.2C11.3,0.2,0.2,11.3,0.2,25S11.3,49.8,25,49.8S49.8,38.7,49.8,25S38.7,0.2,25,0.2z M30,22
		c0,4.5-2.7,9.3-6.1,9.3c-3.4,0-6.1-4.8-6.1-9.3C17.8,12.7,30,12.8,30,22z M31.3,25.4c0.6-0.4,1.3-0.6,2-0.6c2.1,0,3.8,1.7,3.8,3.8
		c0,1.4-0.8,2.7-2,3.3c-1.5-1.3-3.4-2.3-5.4-2.6C30.4,28.1,31,26.8,31.3,25.4z M16.7,18.4c-2.6-2.1-1.1-6.2,2.1-6.2
		c1.2,0,2.2,0.6,2.8,1.4C19.3,14.3,17.6,16,16.7,18.4z M27.7,14.3c-0.5-0.3-1.1-0.5-1.7-0.7C26.8,13.6,27.7,13.5,27.7,14.3z M9.9,17
		v-2.6c0-0.4,0.3-0.7,0.7-0.7h1.5c0.1-0.4,0.3-0.8,0.5-1.2l-1.1-1.1c-0.1-0.1-0.2-0.3-0.2-0.5c0-0.2,0.1-0.4,0.2-0.5l1.9-1.9
		c0.1-0.1,0.3-0.2,0.5-0.2c0.2,0,0.4,0.1,0.5,0.2l1.1,1.1c0.4-0.2,0.8-0.4,1.2-0.5V7.5c0-0.4,0.3-0.7,0.7-0.7h2.7
		c0.4,0,0.7,0.3,0.7,0.7V9c0.4,0.1,0.8,0.3,1.2,0.5l1.1-1.1c0.1-0.1,0.3-0.2,0.5-0.2c0.2,0,0.4,0.1,0.5,0.2l1.9,1.9
		c0.1,0.1,0.2,0.3,0.2,0.5c0,0.2-0.1,0.4-0.2,0.5L25,12.4c0.2,0.3,0.3,0.7,0.5,1.1c-1-0.2-1.8-0.2-2.6-0.1c-0.8-1.4-2.3-2.4-4-2.4
		c-2.6,0-4.6,2.1-4.6,4.6c0,1.6,0.9,3.1,2.1,3.9c-0.2,0.8-0.3,1.6-0.3,2.5v0c-0.2-0.1-0.3-0.1-0.5-0.2l-1.1,1.1
		c-0.1,0.1-0.3,0.2-0.5,0.2c-0.2,0-0.4-0.1-0.5-0.2l-1.9-1.9c-0.3-0.3-0.3-0.8,0-1l1.1-1.1c-0.2-0.4-0.4-0.8-0.5-1.2h-1.5
		C10.2,17.7,9.9,17.4,9.9,17z M37.1,41c-0.4,0.5-0.9,0.8-1.5,0.8H12.2c-0.6,0-1.2-0.3-1.5-0.8c-0.4-0.5-0.4-1.1-0.2-1.7l0.7-2
		c1.2-3.6,4.5-6.1,8.2-6.4c1.3,1.3,2.8,2.2,4.6,2.2c1.8,0,3.3-0.8,4.6-2.2c3.7,0.3,7,2.8,8.2,6.4l0.7,2C37.5,39.9,37.4,40.5,37.1,41
		z M42.7,30.6c-0.1,0.1-0.4,0.2-0.6,0.2h-1.6c-0.1,0.5-0.3,0.9-0.6,1.3l1.2,1.2c0.1,0.1,0.2,0.3,0.2,0.6c0,0.2-0.1,0.4-0.2,0.6l-2,2
		c-0.2,0.2-0.4,0.2-0.6,0.2c-0.1,0-0.2,0-0.3-0.1c-0.5-1.5-1.3-2.7-2.3-3.8c1.4-0.9,2.3-2.4,2.3-4.2c0-2.7-2.2-5-5-5
		c-0.6,0-1.2,0.1-1.7,0.3c0.1-0.7,0.1-1.3,0.1-1.9c0-1-0.1-2-0.4-2.9c0.1-0.1,0.3-0.2,0.5-0.2h2.9c0.4,0,0.8,0.4,0.8,0.8v1.6
		c0.5,0.1,0.9,0.3,1.3,0.5l1.2-1.1c0.1-0.2,0.4-0.2,0.6-0.2c0.2,0,0.4,0.1,0.6,0.2l2,2c0.1,0.1,0.2,0.3,0.2,0.6
		c0,0.2-0.1,0.4-0.2,0.6L40,25.1c0.2,0.4,0.4,0.9,0.6,1.3h1.6c0.4,0,0.8,0.4,0.8,0.8v2.9C42.9,30.3,42.8,30.5,42.7,30.6z"/>
</g>
</svg>
