<?xml version="1.0" encoding="utf-8"?>
<!-- Generator: Adobe Illustrator 17.1.0, SVG Export Plug-In . SVG Version: 6.00 Build 0)  -->
<!DOCTYPE svg PUBLIC "-//W3C//DTD SVG 1.1//EN" "http://www.w3.org/Graphics/SVG/1.1/DTD/svg11.dtd">
<svg version="1.1" id="Слой_1" xmlns="http://www.w3.org/2000/svg" xmlns:xlink="http://www.w3.org/1999/xlink" x="0px" y="0px"
	 viewBox="0 0 70 70" style="enable-background:new 0 0 70 70;" xml:space="preserve">
<style type="text/css">
	.st0{fill:#DEB887;}
</style>
<g>
	<g>
		<path class="st0" d="M25.7,14.5c-4.4,1.3-7.8,4.6-9.6,9.1c-5-4-2.1-11.9,4.1-11.9C22.6,11.7,24.5,12.8,25.7,14.5z"/>
	</g>
	<g>
		<path class="st0" d="M34.3,10L32.3,12c0.4,0.7,0.6,1.4,0.9,2.1c-1.9-0.4-3.4-0.4-5.1-0.2c-1.5-2.7-4.4-4.6-7.8-4.6c-4.9,0-9,4-9,9
			c0,3.2,1.7,5.9,4.1,7.5C15.2,27.4,15,29,15,30.7v0.1c-0.3-0.2-0.7-0.2-1-0.4L12,32.4c-0.3,0.3-0.6,0.4-1,0.4c-0.4,0-0.7-0.2-1-0.4
			l-3.6-3.6c-0.5-0.6-0.5-1.5,0-2l2.1-2.1c-0.4-0.7-0.7-1.5-1-2.3H4.5c-0.8,0-1.4-0.6-1.4-1.4v-5.1c0-0.8,0.6-1.4,1.4-1.4h2.9
			c0.2-0.8,0.6-1.6,1-2.3L6.3,10C6.1,9.7,5.9,9.4,5.9,9c0-0.4,0.2-0.7,0.4-1L10,4.4C10.2,4.1,10.6,4,11,4c0.4,0,0.7,0.1,1,0.4
			L14,6.4c0.8-0.4,1.5-0.7,2.4-1V2.5c0-0.8,0.6-1.4,1.4-1.4h5.1c0.8,0,1.4,0.6,1.4,1.4v2.9c0.8,0.2,1.6,0.6,2.3,1l2.1-2.1
			c0.3-0.3,0.6-0.4,1-0.4c0.4,0,0.7,0.1,1,0.4L34.3,8c0.3,0.3,0.4,0.6,0.4,1C34.8,9.4,34.6,9.7,34.3,10z"/>
	</g>
	<g>
		<path class="st0" d="M37.6,15.7c-1-0.6-2.1-1-3.3-1.3C35.8,14.4,37.5,14.1,37.6,15.7z"/>
	</g>
	<g>
		<path class="st0" d="M41.9,30.7c0,8.7-5.3,17.9-11.8,17.9c-6.5,0-11.8-9.3-11.8-17.9C18.4,12.7,41.9,12.7,41.9,30.7z"/>
	</g>
	<g>
		<path class="st0" d="M55.6,43.4c0,2.8-1.5,5.1-3.8,6.4c-2.9-2.6-6.5-4.4-10.4-5.1c1.4-2.2,2.4-4.8,3.1-7.5
			c1.1-0.7,2.4-1.1,3.8-1.1C52.3,36.1,55.6,39.3,55.6,43.4z"/>
	</g>
	<g>
		<path class="st0" d="M66.9,40.6v5.5c0,0.4-0.2,0.8-0.4,1.1c-0.3,0.3-0.7,0.4-1.1,0.4h-3.1c-0.3,0.9-0.6,1.7-1.1,2.5l2.2,2.2
			c0.3,0.3,0.4,0.7,0.4,1.1c0,0.4-0.2,0.8-0.4,1.1l-3.9,3.9c-0.3,0.3-0.7,0.5-1.1,0.5c-0.2,0-0.3,0-0.5-0.1c-1-2.8-2.5-5.3-4.4-7.4
			c2.7-1.7,4.4-4.7,4.4-8c0-5.3-4.3-9.6-9.6-9.6c-1.1,0-2.2,0.2-3.3,0.6c0.2-1.3,0.3-2.5,0.3-3.8c0-2-0.3-3.8-0.7-5.5
			c0.3-0.2,0.6-0.4,1-0.4h5.5c0.8,0,1.5,0.7,1.5,1.5v3.1c0.9,0.3,1.7,0.6,2.5,1.1l2.2-2.2c0.3-0.3,0.7-0.5,1.1-0.5
			c0.4,0,0.8,0.2,1.1,0.5l3.9,3.9c0.3,0.3,0.4,0.7,0.4,1.1c0,0.4-0.2,0.8-0.4,1.1l-2.2,2.2c0.4,0.8,0.8,1.7,1.1,2.5h3.1
			C66.2,39.1,66.9,39.8,66.9,40.6z"/>
	</g>
	<g>
		<path class="st0" d="M55.6,67.4c-0.7,1-1.8,1.5-3,1.5H7.6c-1.2,0-2.3-0.6-3-1.5c-0.7-0.9-0.9-2.2-0.5-3.3l1.3-3.8
			c2.4-7,8.6-11.8,15.9-12.4c2.4,2.6,5.4,4.2,8.8,4.2s6.4-1.6,8.8-4.2c7.2,0.6,13.5,5.4,15.9,12.4l1.3,3.9
			C56.5,65.2,56.3,66.4,55.6,67.4z"/>
	</g>
</g>
</svg>
