<?xml version="1.0" encoding="utf-8"?>
<!-- Generator: Adobe Illustrator 17.1.0, SVG Export Plug-In . SVG Version: 6.00 Build 0)  -->
<!DOCTYPE svg PUBLIC "-//W3C//DTD SVG 1.1//EN" "http://www.w3.org/Graphics/SVG/1.1/DTD/svg11.dtd">
<svg version="1.1" id="Слой_1" xmlns="http://www.w3.org/2000/svg" xmlns:xlink="http://www.w3.org/1999/xlink" x="0px" y="0px"
	 viewBox="0 0 70 70" style="enable-background:new 0 0 70 70;" xml:space="preserve">
<style type="text/css">
	.st0{fill:#FFFFFF;}
</style>
<g>
	<g>
		<path class="st0" d="M26.7,39.1c0,1.4-1.2,2.4-2.6,2.4c-1.7,0-2.8-1.1-2.8-2.6c0-1.5,1.3-2.5,2.7-2.4
			C25.6,36.6,26.7,37.7,26.7,39.1z"/>
	</g>
	<g>
		<path class="st0" d="M30.7,29.5c0,1.4-1.2,2.5-2.6,2.4c-1.6,0-2.8-1.2-2.8-2.6c0-1.4,1.2-2.4,2.6-2.4C29.6,26.9,30.7,28,30.7,29.5
			z"/>
	</g>
	<g>
		<path class="st0" d="M34.6,19.1c0,1.4-1.1,2.5-2.6,2.4c-1.6,0-2.7-1.1-2.8-2.5c0-1.4,1.1-2.5,2.5-2.4
			C33.4,16.6,34.6,17.6,34.6,19.1z"/>
	</g>
	<g>
		<path class="st0" d="M52.8,24.3c0,1.4-1.2,2.9-3.3,2.4c-3.6-0.9-7.1-1.9-10.7-2.9c-1.2-0.3-2-1.4-1.9-2.5c0-1.1,0.9-2.1,2.1-2.3
			c0.5-0.1,1,0,1.4,0.1c3.4,0.9,6.8,1.8,10.2,2.8C52.1,22.2,52.8,23,52.8,24.3z"/>
	</g>
	<g>
		<path class="st0" d="M48.4,35.1c0.1,1.4-1.2,2.6-2.6,2.5c-0.5,0-1-0.2-1.5-0.4c-3.2-1.1-6.5-2.1-9.7-3.2c-1.5-0.5-2.3-1.8-1.8-3.2
			c0.4-1.2,1.5-1.9,2.8-1.6c1.6,0.3,3.1,1,4.7,1.5c2.1,0.7,4.2,1.4,6.2,2C47.7,33.1,48.4,33.9,48.4,35.1z"/>
	</g>
	<g>
		<path class="st0" d="M44.3,45.3c0,1.7-1.6,2.9-3.3,2.4c-3.6-1.1-7.2-2.3-10.8-3.5c-1.2-0.4-1.9-1.5-1.7-2.7c0.1-1.1,1-2,2.2-2.2
			c0.4-0.1,0.8,0,1.2,0.1c3.5,1.1,7,2.3,10.5,3.4C43.7,43.2,44.3,44.1,44.3,45.3z"/>
	</g>
	<g>
		<path class="st0" d="M66.6,13.6c-4.3,13.3-8.7,26.6-13.8,39.6c-1.1,2.9-2.5,5.7-4.3,8.2c-2.6,3.7-6.1,5.6-10.6,5.9
			c-2.7,0.2-5.1-0.4-7.5-1.5c-6.8-3.1-13.6-6.2-20.4-9.2c-1.9-0.8-3.6-1.9-5-3.5c-2.1-2.6-2.8-5.6-2.7-8.9c0-1.1,0.2-2.1,0.4-3.1
			c0.1-0.5,0.3-0.5,0.6-0.3c3.5,1.4,7,2.9,10.6,4.3c5.4,2.2,10.9,4.4,16.3,6.6c1,0.4,1,0.4,1,1.8c0.1,1.7,0.3,3.7,1.2,5.5
			c1.3,2.5,3.7,3.6,6.4,3.2c2.9-0.4,4.8-2.3,6.2-4.6c1.9-3,3.2-6.4,4.4-9.7c3.9-10.1,7.3-20.3,10.7-30.6c0.2-0.7,0.4-1.5,0.7-2.2
			c0.3-0.6,0-0.7-0.5-0.8c-2.9-0.6-5.9-1.2-8.8-1.7c-7.4-1.5-14.7-2.9-22.1-4.4c-0.5-0.1-0.6,0-0.7,0.4c-3.6,10-7.3,20-10.9,30
			c-0.4,1.1-1,1.9-2.1,2.1c-1.7,0.3-3.5-1.3-2.7-3.6c1-2.7,2-5.4,2.9-8c3-8.1,5.9-16.2,8.9-24.3c0.6-1.7,1.7-2.3,3.5-2
			c12,2.4,24,4.8,36.1,7.2C66.3,10.4,67.2,11.7,66.6,13.6z"/>
	</g>
</g>
</svg>
