<?xml version="1.0" encoding="utf-8"?>
<!-- Generator: Adobe Illustrator 17.1.0, SVG Export Plug-In . SVG Version: 6.00 Build 0)  -->
<!DOCTYPE svg PUBLIC "-//W3C//DTD SVG 1.1//EN" "http://www.w3.org/Graphics/SVG/1.1/DTD/svg11.dtd">
<svg version="1.1" id="Слой_1" xmlns="http://www.w3.org/2000/svg" xmlns:xlink="http://www.w3.org/1999/xlink" x="0px" y="0px"
	 viewBox="0 0 70 70" style="enable-background:new 0 0 70 70;" xml:space="preserve">
<style type="text/css">
	.st0{fill:#FFFFFF;}
</style>
<path class="st0" d="M59.2,49.8c-2.4-6-4.8-12-7.2-18c-1.9-4.8-3.9-9.7-5.8-14.5c-0.4-1.1-1-2.1-2.3-2.1c-3.5-0.1-6.9,0-10.6,0
	c0.4,0.4,0.6,0.7,0.7,1.1c0.2,2,0.3,4,0.4,6c0.1,0.8-0.3,1.2-1.1,1.2c-1.6,0-3.3,0-4.9,0c-0.8,0-1.2-0.4-1.1-1.2
	c0.1-1.7,0.3-3.4,0.4-5c0-0.7,0.1-1.4,0.6-2h-9.5c-1.9,0-2.5,0.4-3.2,2.1c-4.3,10.9-8.7,21.7-13,32.6c-0.5,1.2-1,2.5-1,3.9
	c0,1-0.1,2,0.9,2.6c0.2,0.3,0.6,0.2,0.9,0.2c7,0,14,0,21,0c0.3,0,0.6,0.1,0.8-0.1c-0.3-0.5-0.5-1-0.4-1.6c0.2-2.5,0.4-5,0.6-7.6
	c0.1-0.7,0.3-1.1,1.1-1.1c3,0.1,5.9,0.1,8.9,0c0.8,0,1,0.6,1.1,1.2c0.2,2.4,0.4,4.9,0.6,7.3c0.1,0.6-0.1,1.2-0.4,1.7
	c0.2,0.1,0.5,0.1,0.7,0.1c7.1,0,14.2,0,21.2,0c0.3,0,0.6,0.1,0.8-0.2c0.6-0.3,0.8-0.8,0.9-1.4C60.5,53.2,59.9,51.5,59.2,49.8z
	 M34.6,40c-2.5,0-4.9,0-7.4,0c-0.8,0-1.2-0.4-1.1-1.2c0.2-3.3,0.5-6.6,0.7-10c0.1-0.7,0.3-1.2,1.1-1.2c2,0.3,4,0.3,6,0
	c0.7,0.1,1.1,0.5,1.1,1.2c0.3,3.3,0.5,6.6,0.7,9.9C35.9,39.6,35.5,40,34.6,40z"/>
<path class="st0" d="M33.9,27.6c-2,0.3-4,0.3-6,0C30,27.8,31.9,27.8,33.9,27.6z"/>
<path class="st0" d="M33.9,27.6c-2,0.3-4,0.3-6,0H33.9z"/>
<g>
	<path class="st0" d="M67.1,8.2c-1.5-1.5-3.9-1.5-5.4,0l-9.8,9.8c-0.1,0.1-0.1,0.2-0.1,0.3L51,23.7c0,0.2,0,0.3,0.1,0.4
		c0.1,0.1,0.2,0.1,0.3,0.1c0,0,0,0,0.1,0l3.3-0.4c0.3,0,0.5-0.3,0.4-0.6c0-0.3-0.3-0.5-0.6-0.4l-2.6,0.3l0.5-3.8l4,4
		c0.1,0.1,0.2,0.1,0.3,0.1c0.1,0,0.3-0.1,0.3-0.1l9.8-9.8c0.7-0.7,1.1-1.7,1.1-2.7S67.8,8.9,67.1,8.2z M66.6,12.7l-4-4
		c0.5-0.4,1.1-0.6,1.8-0.6c0.8,0,1.5,0.3,2,0.8s0.8,1.2,0.8,2C67.2,11.6,67,12.2,66.6,12.7z"/>
</g>
</svg>
