<?xml version="1.0" encoding="utf-8"?>
<!-- Generator: Adobe Illustrator 17.1.0, SVG Export Plug-In . SVG Version: 6.00 Build 0)  -->
<!DOCTYPE svg PUBLIC "-//W3C//DTD SVG 1.1//EN" "http://www.w3.org/Graphics/SVG/1.1/DTD/svg11.dtd">
<svg version="1.1" id="Слой_1" xmlns="http://www.w3.org/2000/svg" xmlns:xlink="http://www.w3.org/1999/xlink" x="0px" y="0px"
	 viewBox="0 0 70 70" style="enable-background:new 0 0 70 70;" xml:space="preserve">
<style type="text/css">
	.st0{fill:#FFFFFF;}
</style>
<path class="st0" d="M49.4,21.4v-0.9c0-0.8,0.6-1.4,1.4-1.4h6.8v-6.8c0-0.8,0.6-1.4,1.4-1.4h0.9c0.8,0,1.4,0.6,1.4,1.4v6.8h6.8
	c0.8,0,1.4,0.6,1.4,1.4v0.9c0,0.8-0.6,1.4-1.4,1.4h-6.8v6.8c0,0.8-0.6,1.4-1.4,1.4H59c-0.8,0-1.4-0.6-1.4-1.4v-6.8h-6.8
	C50,22.9,49.4,22.2,49.4,21.4z"/>
<g>
	<path class="st0" d="M48.6,52.2c0,2.5-2,4.5-4.5,4.5H5.5c-2.5,0-4.5-2-4.5-4.5V26.9h5.9v-3h41.6V52.2z M6.9,29.9H4v22.3
		c0,0.8,0.7,1.5,1.5,1.5s1.5-0.7,1.5-1.5V29.9z M45.6,26.9H9.9v25.3c0,0.5-0.1,1-0.3,1.5h34.5c0.8,0,1.5-0.7,1.5-1.5V26.9z
		 M27.8,44.7H12.9V29.9h14.9V44.7z M27.8,50.7H12.9v-3h14.9V50.7z M15.9,32.8v8.9h8.9v-8.9H15.9z M42.6,32.8H30.7v-3h11.9V32.8z
		 M42.6,38.8H30.7v-3h11.9V38.8z M42.6,44.7H30.7v-3h11.9V44.7z M42.6,50.7H30.7v-3h11.9V50.7z"/>
</g>
</svg>
