<?xml version="1.0" encoding="utf-8"?>
<!-- Generator: Adobe Illustrator 17.1.0, SVG Export Plug-In . SVG Version: 6.00 Build 0)  -->
<!DOCTYPE svg PUBLIC "-//W3C//DTD SVG 1.1//EN" "http://www.w3.org/Graphics/SVG/1.1/DTD/svg11.dtd">
<svg version="1.1" id="Layer_1" xmlns="http://www.w3.org/2000/svg" xmlns:xlink="http://www.w3.org/1999/xlink" x="0px" y="0px"
	 viewBox="0 0 100 100" enable-background="new 0 0 100 100" xml:space="preserve">
<radialGradient id="XMLID_4_" cx="102.5" cy="16408.25" r="36.7035" gradientTransform="matrix(7.337453e-004 0.1279 -0.4959 2.844719e-003 8149.8291 -10.8299)" gradientUnits="userSpaceOnUse">
	<stop  offset="0" style="stop-color:#FFFFFF"/>
	<stop  offset="1" style="stop-color:#000000"/>
</radialGradient>
<path id="XMLID_10_" fill="url(#XMLID_4_)" d="M16.3,49.2c0,3.5-2.9,6.4-6.4,6.4V42.8C13.4,42.8,16.3,45.6,16.3,49.2z"/>
<path id="XMLID_11_" fill="#F97AF9" d="M9.9,42.8v12.8c-3.5,0-6.4-2.9-6.4-6.4S6.4,42.8,9.9,42.8z"/>
<g id="XMLID_1_">
	
		<image overflow="visible" opacity="0.75" enable-background="new    " width="3038" height="500" id="XMLID_106_" xlink:href="F0F5F64D.png"  transform="matrix(3.062766e-002 0 0 3.020722e-002 7.8665 42.4981)">
	</image>
	<g id="XMLID_99_">
		
			<radialGradient id="XMLID_6_" cx="543.3941" cy="26.2492" r="93.5022" gradientTransform="matrix(6.735868e-004 -0.1279 -2.7424 -1.838066e-002 125.7446 119.3285)" gradientUnits="userSpaceOnUse">
			<stop  offset="0" style="stop-color:#FFFFFF"/>
			<stop  offset="1" style="stop-color:#000000"/>
		</radialGradient>
		<path id="XMLID_105_" fill="url(#XMLID_6_)" d="M93.1,55.6H15.2c-3.5,0-6.4-2.9-6.4-6.4l0,0c0-3.5,2.9-6.4,6.4-6.4h77.9
			c3.5,0,6.4,2.9,6.4,6.4l0,0C99.5,52.7,96.6,55.6,93.1,55.6z"/>
	</g>
</g>
<path id="XMLID_15_" fill="#34BF51" d="M16.3,49.2c0,3.5-2.9,6.4-6.4,6.4s-6.4-2.9-6.4-6.4s2.9-6.4,6.4-6.4S16.3,45.6,16.3,49.2z"/>
<g id="XMLID_26_">
	
		<image overflow="visible" opacity="0.75" enable-background="new    " width="683" height="683" xlink:href="F0F5F64F.png"  transform="matrix(3.047366e-002 0 0 3.047366e-002 -0.2238 39.6521)">
	</image>
	<g>
		<path fill="#F6F6F6" d="M9.9,39.9c-5.1,0-9.2,4.1-9.2,9.2c0,5.1,4.1,9.2,9.2,9.2s9.2-4.1,9.2-9.2C19.2,44,15,39.9,9.9,39.9z
			 M9.9,55.6c-3.5,0-6.4-2.9-6.4-6.4s2.9-6.4,6.4-6.4s6.4,2.9,6.4,6.4S13.4,55.6,9.9,55.6z"/>
	</g>
</g>
<rect id="XMLID_5_" x="37" y="25.7" fill="none" width="30" height="6.3"/>
<text id="XMLID_3_" transform="matrix(1 0 0 1 36.9786 31.165)" font-family="'v_CCZoinks'" font-size="6.3955">НОВОСТИ</text>
<g>
	<linearGradient id="SVGID_1_" gradientUnits="userSpaceOnUse" x1="44.7263" y1="53.3953" x2="44.7263" y2="46.4786">
		<stop  offset="0" style="stop-color:#34BF51"/>
		<stop  offset="0.1126" style="stop-color:#2CA044"/>
		<stop  offset="0.3397" style="stop-color:#1C682C"/>
		<stop  offset="0.55" style="stop-color:#103B19"/>
		<stop  offset="0.7368" style="stop-color:#071B0B"/>
		<stop  offset="0.8932" style="stop-color:#020703"/>
		<stop  offset="1" style="stop-color:#000000"/>
	</linearGradient>
	<path fill="url(#SVGID_1_)" d="M46.7,47.2c-0.3,0.6-0.5,1.4-0.7,2.4c-0.2,0.9-0.2,1.9-0.3,2.9c-0.3,0.1-0.7,0.1-1.3,0.2
		c0.1-1.1,0.2-2.1,0.3-2.9c-0.1,0-0.3,0.1-0.7,0.3c-0.1,0.8-0.1,1.4-0.1,2l-1.1,0.4c0-0.5-0.1-1.1-0.1-1.8c0-1,0-2,0.1-3l1.5-0.2
		c-0.1,0.4-0.2,1-0.3,1.8c0.1-0.1,0.4-0.1,0.7-0.3c0.1-0.5,0.1-0.8,0.2-1c0.1-0.3,0.1-0.7,0.2-0.9L46.7,47.2z"/>
	<linearGradient id="SVGID_2_" gradientUnits="userSpaceOnUse" x1="47.8503" y1="53.3953" x2="47.8503" y2="46.4786">
		<stop  offset="0" style="stop-color:#34BF51"/>
		<stop  offset="0.1126" style="stop-color:#2CA044"/>
		<stop  offset="0.3397" style="stop-color:#1C682C"/>
		<stop  offset="0.55" style="stop-color:#103B19"/>
		<stop  offset="0.7368" style="stop-color:#071B0B"/>
		<stop  offset="0.8932" style="stop-color:#020703"/>
		<stop  offset="1" style="stop-color:#000000"/>
	</linearGradient>
	<path fill="url(#SVGID_2_)" d="M49.6,49.8c-0.1,1-0.3,1.6-0.7,2c-0.3,0.4-0.8,0.6-1.4,0.6c-0.4,0-0.8-0.1-1-0.5
		c-0.3-0.4-0.4-0.9-0.4-1.5c0-0.2,0-0.5,0.1-0.7c0.3-1.4,1-2.2,2.2-2.3c0.4,0,0.7,0.1,0.9,0.5c0.2,0.3,0.4,0.8,0.4,1.4
		C49.6,49.4,49.6,49.6,49.6,49.8z M48.4,50c0-0.2,0.1-0.5,0.1-0.7c0-0.7-0.1-1.1-0.3-1c-0.2,0-0.4,0.3-0.5,0.6
		c-0.1,0.3-0.2,0.7-0.3,1.1c0,0.2,0,0.4,0,0.6c0,0.6,0.1,0.9,0.4,0.9c0.1,0,0.3-0.2,0.4-0.5C48.2,50.7,48.3,50.3,48.4,50z"/>
	<linearGradient id="SVGID_3_" gradientUnits="userSpaceOnUse" x1="51.2495" y1="53.3953" x2="51.2495" y2="46.4786">
		<stop  offset="0" style="stop-color:#34BF51"/>
		<stop  offset="0.1126" style="stop-color:#2CA044"/>
		<stop  offset="0.3397" style="stop-color:#1C682C"/>
		<stop  offset="0.55" style="stop-color:#103B19"/>
		<stop  offset="0.7368" style="stop-color:#071B0B"/>
		<stop  offset="0.8932" style="stop-color:#020703"/>
		<stop  offset="1" style="stop-color:#000000"/>
	</linearGradient>
	<path fill="url(#SVGID_3_)" d="M53,50c0,0.4-0.1,0.7-0.3,1c-0.2,0.2-0.5,0.5-0.9,0.9c-0.4,0.3-0.9,0.6-1.3,0.8
		c-0.1-0.1-0.4-0.3-0.9-0.6c0-0.4,0.2-1.8,0.6-4.3c0.6-0.3,1.1-0.5,1.6-0.5c0.2,0,0.5,0,0.7,0.1c0.2,0.1,0.3,0.3,0.3,0.5
		c0,0.2-0.1,0.5-0.3,0.8c-0.2,0.3-0.4,0.4-0.5,0.6c0.1,0,0.2,0,0.3,0C52.7,49.2,53,49.5,53,50z M51.7,50.4c0-0.2,0-0.3-0.1-0.4
		c-0.1-0.1-0.2-0.1-0.3-0.1c-0.1,0-0.2,0-0.4,0.1l-0.1,1.5c0.2-0.1,0.4-0.2,0.6-0.4C51.6,50.8,51.7,50.6,51.7,50.4z M51.6,48.5
		c0-0.1,0-0.2-0.1-0.3c-0.1-0.1-0.2-0.1-0.3-0.1c-0.1,0-0.1,0-0.2,0.1L51,49.3c0.1-0.1,0.3-0.2,0.4-0.4
		C51.6,48.7,51.6,48.6,51.6,48.5z"/>
	<linearGradient id="SVGID_4_" gradientUnits="userSpaceOnUse" x1="54.508" y1="53.3953" x2="54.508" y2="46.4786">
		<stop  offset="0" style="stop-color:#34BF51"/>
		<stop  offset="0.1126" style="stop-color:#2CA044"/>
		<stop  offset="0.3397" style="stop-color:#1C682C"/>
		<stop  offset="0.55" style="stop-color:#103B19"/>
		<stop  offset="0.7368" style="stop-color:#071B0B"/>
		<stop  offset="0.8932" style="stop-color:#020703"/>
		<stop  offset="1" style="stop-color:#000000"/>
	</linearGradient>
	<path fill="url(#SVGID_4_)" d="M56.3,49.8c-0.1,1-0.3,1.6-0.7,2c-0.3,0.4-0.8,0.6-1.4,0.6c-0.4,0-0.8-0.1-1-0.5
		c-0.3-0.4-0.4-0.9-0.4-1.5c0-0.2,0-0.5,0.1-0.7c0.3-1.4,1-2.2,2.2-2.3c0.4,0,0.7,0.1,0.9,0.5s0.4,0.8,0.4,1.4
		C56.3,49.4,56.3,49.6,56.3,49.8z M55,50c0-0.2,0.1-0.5,0.1-0.7c0-0.7-0.1-1.1-0.3-1c-0.2,0-0.4,0.3-0.5,0.6
		c-0.1,0.3-0.2,0.7-0.3,1.1c0,0.2,0,0.4,0,0.6c0,0.6,0.1,0.9,0.4,0.9c0.1,0,0.3-0.2,0.4-0.5C54.9,50.7,55,50.3,55,50z"/>
	<linearGradient id="SVGID_5_" gradientUnits="userSpaceOnUse" x1="58.0528" y1="53.3953" x2="58.0528" y2="46.4786">
		<stop  offset="0" style="stop-color:#34BF51"/>
		<stop  offset="0.1126" style="stop-color:#2CA044"/>
		<stop  offset="0.3397" style="stop-color:#1C682C"/>
		<stop  offset="0.55" style="stop-color:#103B19"/>
		<stop  offset="0.7368" style="stop-color:#071B0B"/>
		<stop  offset="0.8932" style="stop-color:#020703"/>
		<stop  offset="1" style="stop-color:#000000"/>
	</linearGradient>
	<path fill="url(#SVGID_5_)" d="M59.6,48.3l-0.8,0.8c-0.1-0.5-0.2-0.7-0.3-0.7c-0.3,0-0.6,0.7-0.7,2c0,0.2,0,0.4,0,0.5
		c0,0.6,0.1,0.9,0.3,0.9c0.1,0,0.3-0.1,0.5-0.4c0.2-0.2,0.3-0.5,0.4-0.7l0.6,1c-0.1,0.3-0.3,0.5-0.6,0.7c-0.3,0.2-0.6,0.3-1,0.3
		c-0.9,0-1.4-0.7-1.3-2.1c0-0.7,0.2-1.4,0.7-2c0.3-0.5,0.7-0.8,1-1c0.2-0.1,0.3-0.1,0.5-0.1c0.2,0,0.4,0.1,0.6,0.2
		C59.4,47.8,59.5,48,59.6,48.3z"/>
	<linearGradient id="SVGID_6_" gradientUnits="userSpaceOnUse" x1="60.9099" y1="53.3953" x2="60.9099" y2="46.4786">
		<stop  offset="0" style="stop-color:#34BF51"/>
		<stop  offset="0.1126" style="stop-color:#2CA044"/>
		<stop  offset="0.3397" style="stop-color:#1C682C"/>
		<stop  offset="0.55" style="stop-color:#103B19"/>
		<stop  offset="0.7368" style="stop-color:#071B0B"/>
		<stop  offset="0.8932" style="stop-color:#020703"/>
		<stop  offset="1" style="stop-color:#000000"/>
	</linearGradient>
	<path fill="url(#SVGID_6_)" d="M62.6,48.4c-0.1,0-0.3,0-0.5,0.1l-0.5,0.1c-0.1,0.2-0.1,0.5-0.1,1c0,0.5-0.1,1-0.1,1.4s0,0.8,0.1,1
		c-0.1,0-0.4,0.2-0.7,0.4c-0.3,0.2-0.6,0.3-0.7,0.4c0-0.6,0.1-1.3,0.2-2.1c0.1-0.8,0.2-1.4,0.3-1.9c-0.2,0-0.5,0.1-1.1,0.4l0.3-1.3
		c0.8-0.1,1.8-0.3,3-0.6C62.6,47.4,62.6,47.7,62.6,48.4z"/>
	<linearGradient id="SVGID_7_" gradientUnits="userSpaceOnUse" x1="64.0212" y1="53.3953" x2="64.0212" y2="46.4786">
		<stop  offset="0" style="stop-color:#34BF51"/>
		<stop  offset="0.1126" style="stop-color:#2CA044"/>
		<stop  offset="0.3397" style="stop-color:#1C682C"/>
		<stop  offset="0.55" style="stop-color:#103B19"/>
		<stop  offset="0.7368" style="stop-color:#071B0B"/>
		<stop  offset="0.8932" style="stop-color:#020703"/>
		<stop  offset="1" style="stop-color:#000000"/>
	</linearGradient>
	<path fill="url(#SVGID_7_)" d="M66,47.2c-0.3,0.6-0.5,1.4-0.7,2.4c-0.2,0.9-0.2,1.9-0.3,2.9c-0.3,0.1-0.7,0.1-1.3,0.2
		c0-0.9,0.1-2.1,0.3-3.4c-0.6,1.1-0.9,2-1,2.8l-1.1,0.4c0-0.5-0.1-1.1-0.1-1.8c0-1,0-2,0.1-3l1.5-0.2c-0.2,0.5-0.3,1.2-0.4,2.2
		c0.4-1,0.8-1.8,1.3-2.6L66,47.2z"/>
</g>
<g>
	
		<image overflow="visible" opacity="0.75" enable-background="new    " width="371" height="375" xlink:href="F0F5F64A.png"  transform="matrix(3.045015e-002 0 0 3.012535e-002 4.4916 44.4071)">
	</image>
	<g>
		<g>
			
				<radialGradient id="SVGID_8_" cx="79.4449" cy="26.935" r="291.0429" gradientTransform="matrix(0.1279 0 0 -0.1279 0 52.6989)" gradientUnits="userSpaceOnUse">
				<stop  offset="0" style="stop-color:#FFFFFF"/>
				<stop  offset="1" style="stop-color:#000000"/>
			</radialGradient>
			<path fill="url(#SVGID_8_)" d="M9.9,44.7c-2.5,0-4.5,2-4.5,4.5s2,4.5,4.5,4.5s4.5-2,4.5-4.5S12.4,44.7,9.9,44.7z M7.2,50.9v-4.2
				h4.7v4c0,0.2,0.2,0.3,0.3,0.3c0.1,0,0.1-0.1,0.1-0.1c0-0.1-0.1-0.1-0.1-0.1c0,0-0.1,0-0.1-0.1v-3.4h0.4v3.6
				c0,0.2-0.2,0.4-0.4,0.4H7.6C7.4,51.3,7.2,51.1,7.2,50.9z"/>
			
				<radialGradient id="SVGID_9_" cx="79.4449" cy="26.935" r="291.0429" gradientTransform="matrix(0.1279 0 0 -0.1279 0 52.6989)" gradientUnits="userSpaceOnUse">
				<stop  offset="0" style="stop-color:#FFFFFF"/>
				<stop  offset="1" style="stop-color:#000000"/>
			</radialGradient>
			<path fill="url(#SVGID_9_)" d="M7.9,50.7h1.3c0.1,0,0.1-0.1,0.1-0.1c0-0.1-0.1-0.1-0.1-0.1H7.9c-0.1,0-0.1,0.1-0.1,0.1
				C7.8,50.7,7.8,50.7,7.9,50.7z"/>
			
				<radialGradient id="SVGID_10_" cx="79.4449" cy="26.935" r="291.0429" gradientTransform="matrix(0.1279 0 0 -0.1279 0 52.6989)" gradientUnits="userSpaceOnUse">
				<stop  offset="0" style="stop-color:#FFFFFF"/>
				<stop  offset="1" style="stop-color:#000000"/>
			</radialGradient>
			<path fill="url(#SVGID_10_)" d="M11.2,50.5H9.9c-0.1,0-0.1,0.1-0.1,0.1c0,0.1,0.1,0.1,0.1,0.1h1.3c0.1,0,0.1-0.1,0.1-0.1
				C11.3,50.6,11.3,50.5,11.2,50.5z"/>
			
				<radialGradient id="SVGID_11_" cx="79.4449" cy="26.935" r="291.0429" gradientTransform="matrix(0.1279 0 0 -0.1279 0 52.6989)" gradientUnits="userSpaceOnUse">
				<stop  offset="0" style="stop-color:#FFFFFF"/>
				<stop  offset="1" style="stop-color:#000000"/>
			</radialGradient>
			<path fill="url(#SVGID_11_)" d="M7.9,47.4h3.3c0.1,0,0.1-0.1,0.1-0.1s-0.1-0.1-0.1-0.1H7.9c-0.1,0-0.1,0.1-0.1,0.1
				S7.8,47.4,7.9,47.4z"/>
			
				<radialGradient id="SVGID_12_" cx="79.4449" cy="26.935" r="291.0429" gradientTransform="matrix(0.1279 0 0 -0.1279 0 52.6989)" gradientUnits="userSpaceOnUse">
				<stop  offset="0" style="stop-color:#FFFFFF"/>
				<stop  offset="1" style="stop-color:#000000"/>
			</radialGradient>
			<path fill="url(#SVGID_12_)" d="M11.2,47.8H9.9c-0.1,0-0.1,0.1-0.1,0.1c0,0.1,0.1,0.1,0.1,0.1h1.3c0.1,0,0.1-0.1,0.1-0.1
				C11.3,47.9,11.3,47.8,11.2,47.8z"/>
			
				<radialGradient id="SVGID_13_" cx="79.4449" cy="26.935" r="291.0429" gradientTransform="matrix(0.1279 0 0 -0.1279 0 52.6989)" gradientUnits="userSpaceOnUse">
				<stop  offset="0" style="stop-color:#FFFFFF"/>
				<stop  offset="1" style="stop-color:#000000"/>
			</radialGradient>
			<path fill="url(#SVGID_13_)" d="M11.2,48.5H9.9c-0.1,0-0.1,0.1-0.1,0.1c0,0.1,0.1,0.1,0.1,0.1h1.3c0.1,0,0.1-0.1,0.1-0.1
				C11.3,48.6,11.3,48.5,11.2,48.5z"/>
			
				<radialGradient id="SVGID_14_" cx="79.4449" cy="26.935" r="291.0429" gradientTransform="matrix(0.1279 0 0 -0.1279 0 52.6989)" gradientUnits="userSpaceOnUse">
				<stop  offset="0" style="stop-color:#FFFFFF"/>
				<stop  offset="1" style="stop-color:#000000"/>
			</radialGradient>
			<path fill="url(#SVGID_14_)" d="M11.2,49.2H9.9c-0.1,0-0.1,0.1-0.1,0.1c0,0.1,0.1,0.1,0.1,0.1h1.3c0.1,0,0.1-0.1,0.1-0.1
				C11.3,49.2,11.3,49.2,11.2,49.2z"/>
			
				<radialGradient id="SVGID_15_" cx="79.4449" cy="26.935" r="291.0429" gradientTransform="matrix(0.1279 0 0 -0.1279 0 52.6989)" gradientUnits="userSpaceOnUse">
				<stop  offset="0" style="stop-color:#FFFFFF"/>
				<stop  offset="1" style="stop-color:#000000"/>
			</radialGradient>
			<path fill="url(#SVGID_15_)" d="M11.2,49.8H9.9c-0.1,0-0.1,0.1-0.1,0.1c0,0.1,0.1,0.1,0.1,0.1h1.3c0.1,0,0.1-0.1,0.1-0.1
				C11.3,49.9,11.3,49.8,11.2,49.8z"/>
			
				<radialGradient id="SVGID_16_" cx="79.4449" cy="26.935" r="291.0429" gradientTransform="matrix(0.1279 0 0 -0.1279 0 52.6989)" gradientUnits="userSpaceOnUse">
				<stop  offset="0" style="stop-color:#FFFFFF"/>
				<stop  offset="1" style="stop-color:#000000"/>
			</radialGradient>
			<path fill="url(#SVGID_16_)" d="M7.9,50.1h1.3c0.1,0,0.1-0.1,0.1-0.1c0-0.1-0.1-0.1-0.1-0.1H7.9c-0.1,0-0.1,0.1-0.1,0.1
				S7.8,50.1,7.9,50.1z"/>
			
				<radialGradient id="SVGID_17_" cx="79.4449" cy="26.935" r="291.0429" gradientTransform="matrix(0.1279 0 0 -0.1279 0 52.6989)" gradientUnits="userSpaceOnUse">
				<stop  offset="0" style="stop-color:#FFFFFF"/>
				<stop  offset="1" style="stop-color:#000000"/>
			</radialGradient>
			<path fill="url(#SVGID_17_)" d="M7.9,49.4h1.3c0.1,0,0.1-0.1,0.1-0.1V48c0-0.1-0.1-0.1-0.1-0.1H7.9c-0.1,0-0.1,0.1-0.1,0.1v1.3
				C7.8,49.4,7.8,49.4,7.9,49.4z M8,48.1h1.1v1.1H8V48.1z"/>
		</g>
	</g>
</g>
</svg>
