<?xml version="1.0" encoding="utf-8"?>
<!-- Generator: Adobe Illustrator 17.1.0, SVG Export Plug-In . SVG Version: 6.00 Build 0)  -->
<!DOCTYPE svg PUBLIC "-//W3C//DTD SVG 1.1//EN" "http://www.w3.org/Graphics/SVG/1.1/DTD/svg11.dtd">
<svg version="1.1" id="Слой_1" xmlns="http://www.w3.org/2000/svg" xmlns:xlink="http://www.w3.org/1999/xlink" x="0px" y="0px"
	 viewBox="0 0 30 30" style="enable-background:new 0 0 30 30;" xml:space="preserve">
<style type="text/css">
	.st0{fill:#9E9E9E;}
</style>
<g>
	<path class="st0" d="M22,11.2h-1.3V9.5c0-3.1-2.5-5.7-5.7-5.7c-3.1,0-5.6,2.5-5.6,5.7v1.7H8c-1.1,0-1.9,0.9-1.9,1.9v11
		c0,1.1,0.9,1.9,1.9,1.9h14c1.1,0,1.9-0.9,1.9-1.9v-11C23.9,12.1,23.1,11.2,22,11.2z M11.9,9.5c0-1.7,1.4-3.1,3.1-3.1
		c1.7,0,3.1,1.4,3.1,3.1v1.7h-6.2V9.5z M16,21v2.8c0,0.1-0.1,0.2-0.2,0.2h-1.3c-0.1,0-0.2-0.1-0.2-0.2V21c-0.9-0.4-1.6-1.2-1.6-2.3
		c0-1.4,1.1-2.5,2.5-2.5c1.4,0,2.5,1.1,2.5,2.5C17.6,19.8,17,20.7,16,21z"/>
</g>
</svg>
