<?xml version="1.0" encoding="utf-8"?>
<!-- Generator: Adobe Illustrator 17.1.0, SVG Export Plug-In . SVG Version: 6.00 Build 0)  -->
<!DOCTYPE svg PUBLIC "-//W3C//DTD SVG 1.1//EN" "http://www.w3.org/Graphics/SVG/1.1/DTD/svg11.dtd">
<svg version="1.1" id="Слой_1" xmlns="http://www.w3.org/2000/svg" xmlns:xlink="http://www.w3.org/1999/xlink" x="0px" y="0px"
	 viewBox="0 0 30 30" style="enable-background:new 0 0 30 30;" xml:space="preserve">
<style type="text/css">
	.st0{fill:#9E9E9E;}
</style>
<g>
	<path class="st0" d="M20.4,8.6c0.8,0,1.5-0.7,1.5-1.5V5.5c0-0.8-0.7-1.5-1.5-1.5c-0.8,0-1.5,0.7-1.5,1.5v1.6
		C18.9,7.9,19.6,8.6,20.4,8.6L20.4,8.6z M20.4,8.6"/>
	<path class="st0" d="M25.9,6.6h-3.1v0.8c0,1.3-1,2.3-2.3,2.3c-1.3,0-2.3-1-2.3-2.3V6.6h-6.2v0.8c0,1.3-1,2.3-2.3,2.3
		c-1.3,0-2.3-1-2.3-2.3V6.6l-3.1,0v19.5h20.2l1.6,0L25.9,6.6z M24.3,24.5H5.7V12h18.7V24.5z M24.3,24.5"/>
	<path class="st0" d="M9.5,8.6c0.8,0,1.5-0.7,1.5-1.5V5.5c0-0.9-0.7-1.5-1.5-1.5C8.7,3.9,8,4.6,8,5.5v1.6C8,7.9,8.7,8.6,9.5,8.6
		L9.5,8.6z M9.5,8.6"/>
	<rect x="11.9" y="13.7" class="st0" width="2.5" height="2.2"/>
	<rect x="15.9" y="13.7" class="st0" width="2.5" height="2.2"/>
	<rect x="19.5" y="13.7" class="st0" width="2.5" height="2.2"/>
	<rect x="11.9" y="17.3" class="st0" width="2.5" height="2.2"/>
	<rect x="15.9" y="17.3" class="st0" width="2.5" height="2.2"/>
	<rect x="19.5" y="17.3" class="st0" width="2.5" height="2.2"/>
	<rect x="11.9" y="21" class="st0" width="2.5" height="2.2"/>
	<rect x="8" y="17.3" class="st0" width="2.5" height="2.2"/>
	<rect x="8" y="21" class="st0" width="2.5" height="2.2"/>
	<rect x="15.9" y="21" class="st0" width="2.5" height="2.2"/>
	<rect x="19.5" y="21" class="st0" width="2.5" height="2.2"/>
</g>
</svg>
