<?xml version="1.0" encoding="utf-8"?>
<!-- Generator: Adobe Illustrator 17.1.0, SVG Export Plug-In . SVG Version: 6.00 Build 0)  -->
<!DOCTYPE svg PUBLIC "-//W3C//DTD SVG 1.1//EN" "http://www.w3.org/Graphics/SVG/1.1/DTD/svg11.dtd">
<svg version="1.1" id="Слой_1" xmlns="http://www.w3.org/2000/svg" xmlns:xlink="http://www.w3.org/1999/xlink" x="0px" y="0px"
	 viewBox="0 0 30 30" style="enable-background:new 0 0 30 30;" xml:space="preserve">
<style type="text/css">
	.st0{fill:#9E9E9E;}
</style>
<g>
	<path class="st0" d="M8.7,4c-3.5,0-6.2,2.8-6.2,6.2c0,2.9,4.4,10.3,5.8,12.6C8.4,22.9,8.5,23,8.7,23C8.8,23,9,23,9.1,22.8
		c1.4-2.3,5.8-9.8,5.8-12.6C14.9,6.7,12.1,4,8.7,4L8.7,4z"/>
	<path class="st0" d="M23.5,24.4c-0.4,0-0.8,0.4-0.8,0.8c0,0.4,0.4,0.8,0.8,0.8h3.3c0.4,0,0.8-0.4,0.8-0.8c0-0.4-0.4-0.8-0.8-0.8
		H23.5L23.5,24.4z M23.5,24.4"/>
	<path class="st0" d="M16.4,24.4c-0.4,0-0.8,0.4-0.8,0.8c0,0.4,0.4,0.8,0.8,0.8h3.2c0.4,0,0.8-0.4,0.8-0.8c0-0.4-0.4-0.8-0.8-0.8
		H16.4L16.4,24.4z M16.4,24.4"/>
	<path class="st0" d="M9.4,24.4c-0.4,0-0.8,0.4-0.8,0.8C8.6,25.7,9,26,9.4,26h3.3c0.4,0,0.8-0.4,0.8-0.8c0-0.4-0.4-0.8-0.8-0.8H9.4
		L9.4,24.4z M9.4,24.4"/>
</g>
</svg>
