<?xml version="1.0" encoding="utf-8"?>
<!-- Generator: Adobe Illustrator 17.1.0, SVG Export Plug-In . SVG Version: 6.00 Build 0)  -->
<!DOCTYPE svg PUBLIC "-//W3C//DTD SVG 1.1//EN" "http://www.w3.org/Graphics/SVG/1.1/DTD/svg11.dtd">
<svg version="1.1" id="Слой_1" xmlns="http://www.w3.org/2000/svg" xmlns:xlink="http://www.w3.org/1999/xlink" x="0px" y="0px"
	 viewBox="0 0 30 30" style="enable-background:new 0 0 30 30;" xml:space="preserve">
<style type="text/css">
	.st0{fill:#9E9E9E;}
</style>
<g>
	<path class="st0" d="M21.3,4c-3.4,0-6.2,2.8-6.2,6.2c0,2.9,4.4,10.3,5.8,12.6C21,23,21.2,23,21.3,23c0.2,0,0.3-0.1,0.4-0.2
		c1.4-2.3,5.8-9.8,5.8-12.6C27.5,6.8,24.8,4,21.3,4L21.3,4z"/>
	<path class="st0" d="M6.5,24.4H3.3c-0.4,0-0.8,0.4-0.8,0.8c0,0.4,0.4,0.8,0.8,0.8h3.3c0.4,0,0.8-0.4,0.8-0.8
		C7.3,24.8,7,24.4,6.5,24.4L6.5,24.4z M6.5,24.4"/>
	<path class="st0" d="M13.6,24.4h-3.2c-0.4,0-0.8,0.4-0.8,0.8c0,0.4,0.4,0.8,0.8,0.8h3.2c0.4,0,0.8-0.4,0.8-0.8
		C14.4,24.8,14,24.4,13.6,24.4L13.6,24.4z M13.6,24.4"/>
	<path class="st0" d="M20.6,24.4h-3.3c-0.4,0-0.8,0.4-0.8,0.8c0,0.4,0.4,0.8,0.8,0.8h3.3c0.4,0,0.8-0.4,0.8-0.8
		C21.4,24.8,21,24.4,20.6,24.4L20.6,24.4z M20.6,24.4"/>
</g>
</svg>
