<?xml version="1.0" encoding="utf-8"?>
<!-- Generator: Adobe Illustrator 17.1.0, SVG Export Plug-In . SVG Version: 6.00 Build 0)  -->
<!DOCTYPE svg PUBLIC "-//W3C//DTD SVG 1.1//EN" "http://www.w3.org/Graphics/SVG/1.1/DTD/svg11.dtd">
<svg version="1.1" id="Слой_1" xmlns="http://www.w3.org/2000/svg" xmlns:xlink="http://www.w3.org/1999/xlink" x="0px" y="0px"
	 viewBox="0 0 30 30" style="enable-background:new 0 0 30 30;" xml:space="preserve">
<style type="text/css">
	.st0{fill:#9E9E9E;}
</style>
<g>
	<path class="st0" d="M19.9,4h-9.8C9.3,4,8.6,4.7,8.6,5.5v19c0,0.8,0.7,1.5,1.5,1.5h9.8c0.8,0,1.5-0.7,1.5-1.5v-19
		C21.4,4.7,20.7,4,19.9,4L19.9,4z M13.4,5.1h3.1c0.1,0,0.2,0.1,0.2,0.2c0,0.1-0.1,0.2-0.2,0.2h-3.1c-0.1,0-0.2-0.1-0.2-0.2
		C13.3,5.2,13.3,5.1,13.4,5.1L13.4,5.1z M15,25.3c-0.4,0-0.7-0.3-0.7-0.7c0-0.4,0.3-0.7,0.7-0.7c0.4,0,0.7,0.3,0.7,0.7
		C15.7,24.9,15.4,25.3,15,25.3L15,25.3z M20.4,23.2H9.6V6.4h10.7V23.2z M20.4,23.2"/>
</g>
</svg>
