<?xml version="1.0" encoding="utf-8"?>
<!-- Generator: Adobe Illustrator 17.1.0, SVG Export Plug-In . SVG Version: 6.00 Build 0)  -->
<!DOCTYPE svg PUBLIC "-//W3C//DTD SVG 1.1//EN" "http://www.w3.org/Graphics/SVG/1.1/DTD/svg11.dtd">
<svg version="1.1" id="Слой_1" xmlns="http://www.w3.org/2000/svg" xmlns:xlink="http://www.w3.org/1999/xlink" x="0px" y="0px"
	 viewBox="0 0 30 30" style="enable-background:new 0 0 30 30;" xml:space="preserve">
<style type="text/css">
	.st0{fill:#9E9E9E;}
</style>
<g>
	<path class="st0" d="M15.1,6.2c0,1.2-1,2.2-2.2,2.2c-1.2,0-2.2-1-2.2-2.2c0-1.2,1-2.2,2.2-2.2C14.1,4,15.1,5,15.1,6.2L15.1,6.2z
		 M15.1,6.2"/>
	<path class="st0" d="M18.5,16.6l-4.2-6.1v-0.2c0-0.8-0.7-1.4-1.5-1.3c-0.7,0.1-1.2,0.7-1.2,1.4v7.5c0,0.7,0.6,1.3,1.3,1.3h4.5
		c1.1,0,2,0.9,2,2v3.3c0,0.7,0.5,1.3,1.2,1.4c0.8,0.1,1.5-0.5,1.5-1.3v-4C22.1,18.5,20.5,16.8,18.5,16.6L18.5,16.6z M14.3,14.3
		l1.6,2.3h-1.4c-0.1,0-0.2-0.1-0.2-0.2V14.3z M14.3,14.3"/>
	<path class="st0" d="M16.7,20.4h-4.2c-1,0-1.9-0.8-1.9-1.9v-4.3c0-0.8-0.7-1.4-1.5-1.3c-0.7,0.1-1.2,0.7-1.2,1.4v5
		c0,2.1,1.7,3.8,3.8,3.8h3.7c0.2,0,0.3,0.1,0.3,0.3v1.2c0,0.7,0.5,1.3,1.2,1.4c0.8,0.1,1.5-0.5,1.5-1.3v-2.5
		C18.4,21.2,17.6,20.4,16.7,20.4L16.7,20.4z M16.7,20.4"/>
</g>
</svg>
